<svg width="512" height="512" viewBox="0 0 512 512" fill="none" xmlns="http://www.w3.org/2000/svg">
<rect width="512" height="512" rx="256" fill="#674EFF"/>
<mask id="mask0_74038_15353" style="mask-type:alpha" maskUnits="userSpaceOnUse" x="0" y="0" width="512" height="512">
<rect width="512" height="512" rx="256" fill="url(#paint0_linear_74038_15353)"/>
</mask>
<g mask="url(#mask0_74038_15353)">
<g filter="url(#filter0_f_74038_15353)">
<ellipse cx="512.004" cy="532.48" rx="215.04" ry="215.04" fill="#CB35FF"/>
<path d="M512.004 750.08C632.181 750.08 729.604 652.657 729.604 532.48C729.604 412.303 632.181 314.88 512.004 314.88C391.827 314.88 294.404 412.303 294.404 532.48C294.404 652.657 391.827 750.08 512.004 750.08Z" stroke="black" stroke-width="5.12"/>
</g>
<g filter="url(#filter1_f_74038_15353)">
<ellipse cx="46.0877" cy="15.3582" rx="215.04" ry="215.04" fill="#49F4FF"/>
<path d="M46.0877 232.958C166.265 232.958 263.688 135.535 263.688 15.3582C263.688 -104.819 166.265 -202.242 46.0877 -202.242C-74.0894 -202.242 -171.512 -104.819 -171.512 15.3582C-171.512 135.535 -74.0894 232.958 46.0877 232.958Z" stroke="black" stroke-width="5.12"/>
</g>
</g>
<path d="M264.004 201.16C269.272 195.892 278.268 198.302 280.196 205.499L302.385 288.31C304.314 295.507 297.728 302.092 290.532 300.164L207.72 277.975C200.524 276.047 198.113 267.051 203.382 261.782L264.004 201.16Z" fill="white"/>
<path d="M198.519 256.001C193.251 261.27 184.255 258.859 182.327 251.663L160.137 168.851C158.209 161.655 164.795 155.069 171.991 156.998L254.803 179.187C261.999 181.115 264.41 190.111 259.141 195.379L198.519 256.001Z" fill="white"/>
<path d="M326.547 290.309C321.279 295.577 312.283 293.167 310.354 285.97L288.165 203.159C286.237 195.962 292.822 189.376 300.019 191.305L382.83 213.494C390.027 215.422 392.438 224.418 387.169 229.687L326.547 290.309Z" fill="white"/>
<path opacity="0.72" d="M350.751 353.088C355.969 358.468 353.355 367.482 346.069 369.236L259.457 390.088C249.881 392.394 243.383 380.588 250.454 373.731L305.507 320.339C309.344 316.617 315.472 316.711 319.193 320.548L350.751 353.088Z" fill="white"/>
<path opacity="0.16" d="M355.837 348.153C361.055 353.533 370.144 351.196 372.121 343.967L395.616 258.035C398.214 248.534 386.613 241.677 379.542 248.535L324.489 301.927C320.652 305.648 320.558 311.775 324.279 315.613L355.837 348.153Z" fill="white"/>
<path opacity="0.16" d="M289.225 125.178C291.164 117.939 284.494 111.337 277.275 113.35L191.465 137.286C181.977 139.932 182.046 153.408 191.56 155.957L265.639 175.807C270.802 177.19 276.109 174.126 277.493 168.963L289.225 125.178Z" fill="white"/>
<path opacity="0.72" d="M128.134 286.558C120.884 288.459 114.318 281.753 116.37 274.545L140.764 188.864C143.462 179.391 156.937 179.532 159.435 189.06L178.888 263.243C180.243 268.414 177.151 273.704 171.98 275.06L128.134 286.558Z" fill="white"/>
<path opacity="0.16" d="M129.925 293.417C122.676 295.318 120.244 304.382 125.57 309.656L188.869 372.342C195.868 379.273 207.54 372.537 205.042 363.01L185.589 288.826C184.233 283.656 178.943 280.563 173.772 281.919L129.925 293.417Z" fill="white"/>
<path d="M216.227 379.444C218.156 386.64 227.152 389.051 232.42 383.782L293.042 323.16C298.311 317.892 295.9 308.896 288.703 306.968L205.892 284.779C198.695 282.85 192.11 289.436 194.038 296.632L216.227 379.444Z" fill="white"/>
<path opacity="0.72" d="M296.082 127.007C298.022 119.767 307.1 117.385 312.345 122.738L374.691 186.372C381.584 193.408 374.787 205.044 365.272 202.494L291.194 182.645C286.031 181.262 282.967 175.955 284.35 170.791L296.082 127.007Z" fill="white"/>
<defs>
<filter id="filter0_f_74038_15353" x="46.0844" y="66.5605" width="931.839" height="931.839" filterUnits="userSpaceOnUse" color-interpolation-filters="sRGB">
<feFlood flood-opacity="0" result="BackgroundImageFix"/>
<feBlend mode="normal" in="SourceGraphic" in2="BackgroundImageFix" result="shape"/>
<feGaussianBlur stdDeviation="122.88" result="effect1_foregroundBlur_74038_15353"/>
</filter>
<filter id="filter1_f_74038_15353" x="-419.832" y="-450.562" width="931.839" height="931.839" filterUnits="userSpaceOnUse" color-interpolation-filters="sRGB">
<feFlood flood-opacity="0" result="BackgroundImageFix"/>
<feBlend mode="normal" in="SourceGraphic" in2="BackgroundImageFix" result="shape"/>
<feGaussianBlur stdDeviation="122.88" result="effect1_foregroundBlur_74038_15353"/>
</filter>
<linearGradient id="paint0_linear_74038_15353" x1="437.76" y1="488.96" x2="92.1599" y2="10.2401" gradientUnits="userSpaceOnUse">
<stop stop-color="#4425FF"/>
<stop offset="1" stop-color="#2A25FF"/>
</linearGradient>
</defs>
</svg>
